<?xml version="1.0" standalone="no"?>
<!DOCTYPE svg PUBLIC "-//W3C//DTD SVG 1.1//EN" "http://www.w3.org/Graphics/SVG/1.1/DTD/svg11.dtd" >
<svg xmlns="http://www.w3.org/2000/svg">
<metadata>
This is a custom SVG webfont generated by Font Squirrel.
Copyright   : Copyright c Ganymede typeface designed by James Arboghast 2002 2005 All rights reserved worldwide Published 2002 2005 by S E N T I N E L  T Y P E This font is authorized for use by Sentinel Type licensees only  may not be copied or distributed Read enclosed text file for details Report piracy to arboghasthotmailcom
Designer    : James Arboghast
Foundry URL : httpwwwmyfontscom
</metadata>
<defs>
<font id="GanymedeRegular" horiz-adv-x="1024" >
<font-face units-per-em="2048" ascent="1638" descent="-410" />
<missing-glyph horiz-adv-x="409" />
<glyph unicode=" "  horiz-adv-x="409" />
<glyph unicode="&#x09;" horiz-adv-x="409" />
<glyph unicode="&#xa0;" horiz-adv-x="409" />
<glyph unicode="!" horiz-adv-x="475" d="M143 1382q66 12 95 13q33 0 94 -13l-23 -1058h-143zM145 0v193h187v-193q-45 -12 -92 -12t-95 12z" />
<glyph unicode="&#x22;" horiz-adv-x="546" d="M51 1372q47 12 91.5 12t86.5 -12l-30 -346h-117zM317 1372q47 12 92 12t87 -12l-31 -346h-117z" />
<glyph unicode="#" horiz-adv-x="1198" d="M82 369l27 129h188l41 229h-191l27 129h186l43 242h154l-43 -242h213l43 242h154l-43 -242h215l-27 -129h-211l-41 -229h213l-26 -129h-209l-39 -226h-154l39 226h-213l-39 -226h-153l38 226h-192zM451 498h213l41 229h-213z" />
<glyph unicode="$" horiz-adv-x="1044" d="M143 768v397q143 172 338 197v104h109v-102q178 -12 311 -113l-90 -147q-94 82 -221 94v-432q16 -2 49 -10q174 -45 262 -135v-451q-143 -135 -311 -162v-98h-109v90q-190 6 -329 115l81 147q106 -90 248 -96v446q-53 10 -100 25q-152 45 -238 131zM313 856 q47 -31 101 -47l67 -18v403q-96 -14 -168 -90v-248zM590 172q88 18 141 70v290q-45 31 -106 48q-16 2 -35 10v-418z" />
<glyph unicode="%" horiz-adv-x="1665" d="M123 737v471q100 100 248 101q150 0 250 -101v-471q-100 -100 -248 -100q-150 0 -250 100zM262 801q45 -33 111 -33q63 0 108 33v344q-45 33 -110 33q-63 0 -109 -33v-344zM412 -102l700 1505h141l-700 -1505h-141zM1044 68v471q100 100 248 100q150 0 250 -100v-471 q-100 -100 -248 -101q-150 1 -250 101zM1184 131q45 -33 110 -33q63 0 109 33v344q-45 33 -111 33q-63 0 -108 -33v-344z" />
<glyph unicode="&#x26;" horiz-adv-x="1153" d="M143 166v381q55 90 154 139q-63 41 -102 111v305q174 205 440 205h49l-35 -164h-45q-154 0 -239 -105v-207q18 -57 90 -81h299v129l153 41v-170h86l27 -148h-113v-440q43 -51 113 -53v-146q-127 8 -209 96q-119 -68 -274 -67q-228 0 -394 174zM313 227q94 -82 224 -82 q127 0 217 68v389h-316q-72 -18 -125 -90v-285z" />
<glyph unicode="'" horiz-adv-x="280" d="M51 1372q47 12 91.5 12t86.5 -12l-30 -346h-117z" />
<glyph unicode="(" horiz-adv-x="634" d="M133 485q0 463 209 897h272v-147h-163q-147 -358 -148 -750q0 -383 150 -747h161v-148h-272q-209 434 -209 895z" />
<glyph unicode=")" horiz-adv-x="638" d="M20 -262h162q150 365 150 747q0 391 -148 750h-164v147h273q209 -434 209 -897q0 -461 -209 -895h-273v148z" />
<glyph unicode="*" horiz-adv-x="743" d="M72 954l24 154l219 -64l-63 238l151 21l11 -240l194 135l64 -127l-215 -86l202 -123l-84 -123l-178 170l-82 -227l-129 68l117 196z" />
<glyph unicode="+" horiz-adv-x="860" d="M102 594v143h256v256h144v-256h256v-143h-256v-256h-144v256h-256z" />
<glyph unicode="," horiz-adv-x="372" d="M82 0v172q53 10 105.5 10t103.5 -10v-186q-8 -135 -154 -189l-35 78q49 16 66 53q9 21 9 42q0 15 -5 30h-90z" />
<glyph unicode="-" horiz-adv-x="614" d="M61 430v137h492v-137h-492z" />
<glyph unicode="." horiz-adv-x="370" d="M82 0v188q54 12 106 12.5t101 -12.5v-188q-50 -13 -102 -13t-105 13z" />
<glyph unicode="/" horiz-adv-x="696" d="M-41 -113l631 1598h147l-631 -1598h-147z" />
<glyph unicode="0" horiz-adv-x="1126" d="M143 147v1006q205 180 420 180t420 -180v-1006q-205 -180 -420 -180t-420 180zM313 229q100 -90 250 -90t250 90v842q-98 86 -249.5 86t-250.5 -86v-842z" />
<glyph unicode="1" horiz-adv-x="559" d="M61 1159q133 68 197 162l137 -76v-1245h-170v1053l-123 -39z" />
<glyph unicode="2" horiz-adv-x="1077" d="M143 1186q172 147 381 147q201 0 406 -180v-498q-9 0 -19 1q-199 0 -348 -85q-156 -88 -205 -237v-180h576v-154h-752v375q66 184 218.5 297.5t359.5 134.5v264q-98 88 -236 88q-86 0 -148.5 -26.5t-133.5 -90.5z" />
<glyph unicode="3" horiz-adv-x="1013" d="M82 109l76 149q158 -123 288 -123q160 0 254 98v265q-51 70 -125 96l-137 10v144l123 10q70 25 119 88v219q-106 100 -250 100q-119 0 -231 -94l-76 156q150 106 307 106q225 0 420 -194v-348q-39 -57 -117 -107q82 -57 137 -131v-397q-182 -188 -424 -189 q-188 1 -364 142z" />
<glyph unicode="4" horiz-adv-x="1095" d="M123 518q84 518 584 813l129 -104v-719h137v-158h-137v-350h-170v350h-502zM307 508h359v586q-143 -92 -243 -257t-116 -329z" />
<glyph unicode="5" horiz-adv-x="1075" d="M143 129l90 139q115 -133 308 -133q121 0 221 94v316q-88 100 -209 100q-119 0 -227 -82l-144 119v618h709v-163h-539v-365q88 51 211 51q223 0 369 -207v-454q-182 -195 -391 -195q-230 0 -398 162z" />
<glyph unicode="6" horiz-adv-x="1093" d="M143 158v972q190 203 412 203q195 0 360 -116l-71 -162q-143 104 -288.5 104t-242.5 -98v-303q102 76 234 76q238 0 403 -205v-471q-188 -190 -403.5 -190t-403.5 190zM313 225q100 -94 233.5 -94t233.5 94v348q-86 92 -233 93q-145 0 -234 -88v-353z" />
<glyph unicode="7" horiz-adv-x="1044" d="M82 1178q193 145 426 145q262 0 455 -190v-123q-193 -158 -279 -310q-43 -72 -72 -184q-32 -132 -32 -274q0 -118 22 -242h-170q-20 140 -20 265q0 142 26 263q63 291 305 506l37 35q-104 86 -272 86q-193 0 -326 -129z" />
<glyph unicode="8" horiz-adv-x="1114" d="M133 147v449q70 63 164 98q-72 37 -123 84v406q174 150 383 149.5t383 -149.5v-404q-59 -53 -125 -86q92 -35 166 -98v-449q-174 -180 -424 -180t-424 180zM303 219q102 -92 254 -92t254 92v313q-115 78 -254 78t-254 -78v-313zM344 831q88 -76 213 -75q135 0 213 75v273 q-90 66 -213 65.5t-213 -65.5v-273z" />
<glyph unicode="9" horiz-adv-x="1093" d="M143 670v467q188 195 403.5 194.5t403.5 -194.5v-967q-190 -203 -411 -203q-195 0 -359 121l72 154q141 -104 286.5 -104.5t241.5 98.5v315q-104 -86 -233 -86q-238 0 -404 205zM313 725q86 -92 234 -92q145 0 233 88v352q-106 94 -233 94t-234 -94v-348z" />
<glyph unicode=":" horiz-adv-x="393" d="M82 0v188q53 10 105.5 10.5t103.5 -10.5v-188q-52 -11 -105 -11zM82 733v189q53 10 105.5 10t103.5 -10v-189q-52 -11 -105 -11z" />
<glyph unicode=";" horiz-adv-x="393" d="M82 0v172q53 10 105.5 10t103.5 -10v-186q-8 -135 -154 -189l-35 78q49 16 66 53q9 21 9 42q0 15 -5 30h-90zM82 733v189q53 10 105.5 10t103.5 -10v-189q-52 -11 -105 -11z" />
<glyph unicode="&#x3c;" horiz-adv-x="874" d="M72 573l544 553l125 -135l-426 -418l424 -417l-125 -136z" />
<glyph unicode="=" horiz-adv-x="903" d="M102 424v143h699v-143h-699zM102 766v143h699v-143h-699z" />
<glyph unicode="&#x3e;" horiz-adv-x="874" d="M133 991l125 135l545 -553l-543 -553l-125 136l424 417z" />
<glyph unicode="?" horiz-adv-x="1019" d="M72 1145q145 182 381 188q258 -10 424 -229v-352q-80 -49 -140 -101q-150 -125 -147 -342h-164v14q0 185 55 290q57 110 232 227v202q-113 119 -258 119h-9q-150 0 -260 -143zM408 0v178h198v-178q-48 -13 -97.5 -13t-100.5 13z" />
<glyph unicode="@" horiz-adv-x="1478" d="M123 344v596q96 174 268 283.5t365 109.5h7q190 0 552 -102v-774l-316 -146q-147 -66 -262 -65q-90 0 -175 42t-142 120v446q119 194 344 194q113 0 252 -49v-528l131 66v567q-214 66 -356 66q-16 0 -31 -1q-156 -4 -277 -77.5t-192 -198.5v-506q131 -256 438 -256 q141 0 283 62l303 139v-178l-260 -123q-141 -63 -326 -64q-403 0 -606 377zM569 453q64 -64 154 -65q65 0 143 34v461q-58 15 -107 15q-119 0 -190 -87v-358z" />
<glyph unicode="A" horiz-adv-x="1228" d="M164 0v1214q147 59 246 82q82 18 204 23q123 -4 205 -23q98 -23 246 -82v-1214h-170v535h-561v-535h-170zM334 690h561v406q-123 45 -281 53q-158 -8 -280 -53v-406z" />
<glyph unicode="B" horiz-adv-x="1110" d="M164 0v1300h667q119 -160 119 -362q0 -82 -18.5 -150.5t-40.5 -95.5q123 -150 123 -338q0 -199 -103 -354h-747zM334 156h473q41 72 41 196q0 131 -82 240h-432v-436zM334 745h401q51 70 51 193q0 131 -45 207h-407v-400z" />
<glyph unicode="C" horiz-adv-x="1110" d="M164 203v895q211 236 457 235q236 0 397 -137l-92 -139q-131 113 -305 112q-162 0 -287 -135v-768q125 -135 287 -135q174 0 305 113l92 -140q-162 -137 -397 -137q-246 0 -457 236z" />
<glyph unicode="D" horiz-adv-x="1173" d="M164 0v1300h760q47 -113 80 -272q37 -184 36 -379q0 -193 -36 -377q-33 -160 -80 -272h-760zM334 156h463q74 221 73 493q0 274 -73 496h-463v-989z" />
<glyph unicode="E" horiz-adv-x="1015" d="M164 0v1300h708v-155h-538v-395h471v-156h-471v-438h559v-156h-729z" />
<glyph unicode="F" horiz-adv-x="991" d="M164 0v1212q223 113 393 113q186 0 332 -70l-55 -155q-148 58 -277 58q-121 0 -223 -52v-377h430v-156h-430v-573h-170z" />
<glyph unicode="G" horiz-adv-x="1187" d="M164 168v975q217 190 430 190q221 0 430 -141v-221h-170v125q-117 74 -260 73q-135 0 -260 -106v-825q125 -106 270 -107q135 0 250 70v243h-184v156h354v-491q-209 -141 -420 -142q-221 0 -440 201z" />
<glyph unicode="H" horiz-adv-x="1181" d="M164 0v1300h170v-548h514v548h170v-1300h-170v596h-514v-596h-170z" />
<glyph unicode="I" horiz-adv-x="497" d="M164 0v1300h170v-1300h-170z" />
<glyph unicode="J" horiz-adv-x="636" d="M61 131q74 12 140.5 50t101.5 91v1028h170v-1083q-139 -209 -387 -246z" />
<glyph unicode="K" horiz-adv-x="1126" d="M164 0v1300h170v-645q143 29 249.5 129.5t160 230.5t65.5 279h168q-35 -395 -283 -620q250 -268 320 -674h-176q-59 346 -273 567q-117 -61 -231 -82v-485h-170z" />
<glyph unicode="L" horiz-adv-x="923" d="M164 0v1300h170v-1144h528v-156h-698z" />
<glyph unicode="M" horiz-adv-x="1519" d="M164 0v1247l192 84l404 -686l403 686l193 -84v-1247h-170v1061l-340 -584h-172l-340 584v-1061h-170z" />
<glyph unicode="N" horiz-adv-x="1206" d="M164 0v1247l162 84l546 -727v696h170v-1300h-170v348l-538 715v-1063h-170z" />
<glyph unicode="O" horiz-adv-x="1249" d="M164 158v985q221 190 460.5 190t460.5 -190v-985q-221 -190 -460.5 -190t-460.5 190zM334 242q125 -111 291 -111t290 111v819q-127 109 -290.5 108.5t-290.5 -108.5v-819z" />
<glyph unicode="P" horiz-adv-x="1105" d="M164 0v1300h696q57 -104 85 -194t28 -229q0 -102 -30 -218t-73 -192h-536v-467h-170zM334 623h428q51 115 51 254q0 172 -51 268h-428v-522z" />
<glyph unicode="Q" horiz-adv-x="1249" d="M164 158v985q221 190 460.5 190t460.5 -190v-985l160 -162l-119 -121l-184 180q-156 -88 -317 -88q-240 1 -461 191zM334 244q125 -113 291 -113t290 113v815q-125 111 -290 110q-166 -4 -291 -110v-815z" />
<glyph unicode="R" horiz-adv-x="1140" d="M164 0v1300h696q43 -78 60.5 -115.5t35 -114.5t17.5 -173q0 -178 -113 -379l137 -518h-161l-134 508h-368v-508h-170zM334 664h428q51 115 51 233q0 154 -51 248h-428v-481z" />
<glyph unicode="S" horiz-adv-x="1044" d="M111 102l82 148q137 -119 309 -119q145 0 229 78v295q-70 47 -223 74q-260 57 -365 161v394q170 201 400 200q203 0 358 -114l-90 -148q-115 98 -268 98q-141 0 -230 -98v-248q68 -43 205 -73q279 -51 383 -162v-451q-180 -170 -399 -170t-391 135z" />
<glyph unicode="T" horiz-adv-x="845" d="M41 1145v155h764v-155h-297v-1145h-170v1145h-297z" />
<glyph unicode="U" horiz-adv-x="1241" d="M164 158v1142h170v-1062q143 -106 292.5 -106.5t280.5 106.5v1062h170v-1142q-217 -190 -450.5 -190t-462.5 190z" />
<glyph unicode="V" horiz-adv-x="1220" d="M92 1300h180q6 -264 37 -423q31 -164 82 -289q90 -229 219 -383q129 154 219 383q51 125 82 289q31 160 37 423h180q-2 -229 -28 -389q-20 -150 -78 -309q-57 -164 -119 -268q-57 -102 -123.5 -189.5t-107.5 -127.5t-62 -50q-18 10 -60 50t-108.5 127t-126.5 190 q-61 109 -116 268q-55 156 -80 309q-25 170 -27 389z" />
<glyph unicode="W" horiz-adv-x="1796" d="M164 139v1161h170v-1085q96 -84 221 -84q152 0 258 121v1048h170v-1048q106 -121 258 -121q125 0 221 84v1085h170v-1161q-195 -172 -391 -172q-195 0 -344 154q-143 -154 -341.5 -154t-391.5 172z" />
<glyph unicode="X" horiz-adv-x="1069" d="M82 0q4 61 27 145q43 147 116 269q102 162 183 235q-90 80 -185 236q-37 68 -59 119q-31 70 -55 151q-23 84 -27 145h176q0 -100 84 -272q80 -162 193 -280q109 115 192 278q76 156 88 274h172q-4 -63 -29 -145q-39 -141 -114 -270q-92 -152 -187 -236q92 -80 185 -235 q39 -61 63 -117q33 -76 53 -152q25 -82 29 -145h-172q-12 123 -88 272q-76 162 -192 279q-109 -109 -193 -279q-76 -150 -88 -272h-172z" />
<glyph unicode="Y" horiz-adv-x="1040" d="M61 1300h170q8 -221 90 -407t199 -277q117 90 199 276.5t90 407.5h170q-25 -514 -375 -813v-487h-168v487q-350 299 -375 813z" />
<glyph unicode="Z" horiz-adv-x="1038" d="M102 184l629 961h-588v155h731l41 -184l-628 -960h649v-156h-793z" />
<glyph unicode="[" horiz-adv-x="518" d="M143 -102v1484h355v-147h-185v-1190h185v-147h-355z" />
<glyph unicode="\" horiz-adv-x="692" d="M-41 1485h143l631 -1598h-143z" />
<glyph unicode="]" horiz-adv-x="518" d="M0 45h184v1190h-184v147h354v-1484h-354v147z" />
<glyph unicode="^" horiz-adv-x="921" d="M82 922l311 338h94l312 -338h-154l-205 225l-204 -225h-154z" />
<glyph unicode="_" horiz-adv-x="819" d="M0 0h819v-127h-819v127z" />
<glyph unicode="`" horiz-adv-x="483" d="M72 1188l88 137l252 -197l-58 -90z" />
<glyph unicode="a" horiz-adv-x="919" d="M113 113v331q143 158 331 158q92 0 168 -35v164q-84 76 -189 76q-89 0 -194 -53l-55 137q123 66 243 65h7q225 -2 352 -155v-750q-90 -43 -160 -63q-61 -20 -157 -21q-176 1 -346 146zM276 176q78 -63 183 -63q102 0 153 37v270q-64 31 -148 31h-20q-104 0 -168 -64v-211 z" />
<glyph unicode="b" d="M143 150v1191l164 41v-522l25 29q88 57 180 57q199 0 369 -201v-636q-88 -76 -173 -109t-196 -33q-183 1 -369 183zM307 213q90 -90 205 -90q125 0 205 61v506q-78 94 -205 94q-123 0 -205 -88v-483z" />
<glyph unicode="c" horiz-adv-x="901" d="M143 156v608q172 193 379 192q178 0 297 -98l-90 -137q-90 74 -207 74q-133 0 -215 -93v-485q82 -88 215 -88q117 0 207 74l90 -137q-119 -98 -297 -99q-215 1 -379 189z" />
<glyph unicode="d" d="M143 160v598q172 188 369 188q94 0 182 -41l23 -22v458l164 41v-1276q-156 -139 -369 -139q-193 0 -369 193zM307 221q92 -100 205 -100q117 0 205 76v518q-78 74 -205 73q-119 0 -205 -90v-477z" />
<glyph unicode="e" horiz-adv-x="993" d="M143 139v654q145 160 363 163q209 0 354 -153v-328q-100 -96 -244 -122q-49 -9 -100 -8q-99 0 -209 32v-170q80 -76 215 -86q141 0 242 94l92 -123q-152 -125 -334 -125q-203 0 -379 172zM307 516q82 -29 185 -29q131 0 204 54v186q-66 70 -190 72q-115 0 -199 -66v-217z " />
<glyph unicode="f" horiz-adv-x="526" d="M72 784v138h82v213q0 82 91 156.5t240 90.5v-165h-15q-54 0 -96 -26q-48 -30 -57 -71v-198h168v-138h-168v-784h-163v784h-82z" />
<glyph unicode="g" d="M143 156v608q180 193 369 192q205 0 369 -139v-1087q-172 -172 -369 -172q-195 0 -311 92l78 133q94 -68 233 -68q117 0 205 84v232l-23 -23q-88 -41 -182 -41q-209 1 -369 189zM307 213q76 -88 205 -88t205 63v539q-90 72 -205 72q-123 0 -205 -94v-492z" />
<glyph unicode="h" horiz-adv-x="993" d="M143 0v1341l164 41v-542l23 28q74 57 172 68q11 1 22 0q193 0 326 -172v-764h-164v705q-73 74 -165 74q-9 0 -19 -1q-119 -8 -195 -106v-672h-164z" />
<glyph unicode="i" horiz-adv-x="454" d="M143 1108v192q43 10 85 10.5t83 -10.5v-192h-168zM145 0v922h164v-922h-164z" />
<glyph unicode="j" horiz-adv-x="454" d="M-45 -260l39 -162q125 39 209 121q86 82 106 145v1078h-164v-1033q-49 -88 -190 -149zM143 1108v192q43 10 85 10.5t83 -10.5v-192h-168z" />
<glyph unicode="k" horiz-adv-x="929" d="M143 0v1270l164 41v-744q92 25 180 130.5t121 224.5l140 -62q-8 -43 -66 -147q-49 -96 -125 -162q209 -268 260 -551h-162q-23 104 -83 238.5t-132 218.5q-88 -53 -133 -66v-391h-164z" />
<glyph unicode="l" horiz-adv-x="460" d="M143 158v1194l164 30v-1161q0 -37 36 -62q26 -18 54 -19q11 0 23 3v-170h-7q-102 0 -173 56q-77 59 -97 129z" />
<glyph unicode="m" horiz-adv-x="1556" d="M143 0v823q96 74 170 103.5t168 29.5q121 0 213 -49q53 -29 84 -53q66 49 115 70q74 33 145 32q115 0 202 -52t173 -154v-750h-164v684q-82 111 -211 111h-5q-89 0 -173 -64v-731h-164v719q-78 76 -215 76q-102 0 -174 -58v-737h-164z" />
<glyph unicode="n" d="M143 0v815q176 141 369 141q205 0 369 -213v-743h-164v680q-92 111 -205 111h-7q-109 0 -198 -64v-727h-164z" />
<glyph unicode="o" d="M143 129v666q164 162 369 161.5t369 -161.5v-666q-164 -162 -369 -162t-369 162zM307 197q84 -72 205 -72t205 72v526q-84 72 -205 72t-205 -72v-526z" />
<glyph unicode="p" d="M143 -410v1231q168 135 369 135q113 0 198 -38.5t171 -131.5v-649q-86 -90 -167 -130t-182 -40q-111 0 -200 47l-23 25v-449h-166zM309 199q86 -74 223 -74q104 2 185 80v520q-82 72 -205 72q-127 0 -203 -62v-536z" />
<glyph unicode="q" d="M143 156v608q176 193 369 192q6 0 11 1q204 0 358 -148v-987q29 -59 125 -113l-80 -143q-158 90 -209 201v272l-23 -25q-88 -47 -182 -47q-197 1 -369 189zM307 217q76 -80 205 -90q121 0 205 78v520q-90 68 -205 68q-119 0 -205 -91v-485z" />
<glyph unicode="r" horiz-adv-x="585" d="M143 0v801q72 78 179 115q59 21 120 21q50 0 103 -13v-181q-38 20 -93 20q-14 0 -29 -1q-75 -6 -116 -49v-713h-164z" />
<glyph unicode="s" horiz-adv-x="872" d="M102 59l70 150q117 -84 244 -84q96 0 159 55v158q-47 37 -149 49q-127 27 -186 55q-51 29 -107 74v303q152 137 309 137q170 0 308 -92l-74 -145q-113 80 -230 80q-90 0 -149 -51v-150q47 -35 149 -49q119 -20 185 -51q61 -29 108 -68v-326q-63 -63 -149 -100t-164 -37 q-185 0 -324 92z" />
<glyph unicode="t" horiz-adv-x="497" d="M61 784v138h84v196l164 51v-247h148v-138h-148v-569q4 -39 47 -63q30 -17 68 -18q16 0 33 3v-164q-17 -2 -34 -1q-95 0 -167 51q-82 57 -111 131v630h-84z" />
<glyph unicode="u" horiz-adv-x="1001" d="M143 182v740h164v-691q76 -109 209 -108h7q90 0 171 53v746h164v-844q-178 -113 -342 -113q-223 0 -373 217z" />
<glyph unicode="v" horiz-adv-x="962" d="M61 922h168q8 -201 76 -398q51 -152 176 -329q125 178 176 329q68 197 76 398h168q-12 -301 -141 -564q-47 -100 -119 -200q-113 -150 -160 -185q-47 35 -159 185q-72 98 -121 200q-128 267 -140 564z" />
<glyph unicode="w" horiz-adv-x="1523" d="M143 166v756h164v-705q76 -94 187 -94h5q107 0 185 84v653h156v-653q78 -84 185 -84h5q111 0 187 94v705h163v-756q-147 -201 -350 -201q-63 0 -149 35q-53 25 -119 78q-66 -53 -119 -78q-86 -35 -149 -35q-204 0 -351 201z" />
<glyph unicode="x" horiz-adv-x="901" d="M102 0q4 131 78 270q57 98 156 191q-98 92 -156 188q-74 141 -78 273h162q4 -82 45 -183q39 -90 142 -190q102 100 141 190q41 100 45 183h162q-4 -139 -80 -273q-49 -90 -154 -188q104 -98 154 -191q76 -129 80 -270h-162q-4 96 -43 178q-51 109 -143 195 q-96 -88 -142 -195q-41 -94 -45 -178h-162z" />
<glyph unicode="y" horiz-adv-x="962" d="M61 922h168q8 -201 76 -398q51 -152 176 -329q125 178 176 329q68 197 76 398h168q-12 -311 -137 -562q-100 -203 -201 -303v-467h-164v465q-100 100 -202 305q-124 253 -136 562z" />
<glyph unicode="z" horiz-adv-x="858" d="M82 123l469 641h-449v158h613l61 -134l-469 -630h443v-158h-617z" />
<glyph unicode="{" horiz-adv-x="673" d="M72 557v182l39 9q61 8 127 65q63 55 63 231v15q0 154 95.5 238.5t256.5 84.5v-163q-182 -4 -182 -140v-18q0 -115 -47 -232q-45 -113 -178 -180q131 -68 178 -182q47 -117 47 -229v-39q0 -135 182 -140v-163q-162 4 -257 89t-95 234v35q0 176 -63 231q-66 57 -127 66z " />
<glyph unicode="|" horiz-adv-x="471" d="M164 -512v1997h143v-1997h-143z" />
<glyph unicode="}" horiz-adv-x="673" d="M20 59q182 4 183 140v39q0 119 45 229q45 113 180 182q-135 70 -180 180.5t-45 231.5v18q0 135 -183 140v163q162 0 257.5 -85t95.5 -238v-15q0 -176 63 -231q66 -57 127 -65l39 -9v-182l-39 -6q-61 -8 -127 -66q-63 -55 -63 -231v-35q0 -150 -95.5 -234.5t-257.5 -88.5 v163z" />
<glyph unicode="~" horiz-adv-x="1116" d="M51 543q33 154 162 241q82 51 164 52q104 0 200.5 -72t163.5 -72q59 0 106.5 43t53.5 101h164q-33 -152 -162 -242q-88 -51 -168 -51q-104 0 -194 71.5t-158 71.5q-63 0 -109.5 -42t-52.5 -101h-170z" />
<glyph unicode="&#xa1;" horiz-adv-x="434" d="M113 0l22 1059h144l22 -1059q-63 -12 -96 -12q-31 0 -92 12zM113 1190v192q45 12 91.5 12.5t94.5 -12.5v-192h-186z" />
<glyph unicode="&#xa2;" horiz-adv-x="901" d="M123 156v653q84 94 174 141q63 37 149 47v150h99v-148q145 -8 254 -96l-90 -137q-76 63 -164 72v-709q90 12 164 74l90 -137q-109 -88 -254 -97v-133h-99v133q-78 8 -149 43q-88 44 -174 144zM293 217q68 -70 153 -86v705q-84 -14 -153 -88v-531z" />
<glyph unicode="&#xa3;" horiz-adv-x="1144" d="M82 90q55 43 117 70v407h-103v103h103v471q215 174 434 174q152 0 342 -90l-70 -160q-98 53 -192 70q-32 5 -66 5q-59 0 -125 -16q-98 -23 -153 -67v-387h344l-31 -103h-313v-389q53 -12 129 -41q55 -19 115 -19q152 0 339 122l80 -140q-119 -68 -184 -94 q-80 -35 -201 -41q-17 -1 -34 -1q-105 0 -195 34q-65 23 -113 23q-29 0 -51 -9q-49 -20 -98 -57z" />
<glyph unicode="&#xa4;" horiz-adv-x="1161" d="M82 481v103h82v123h-82v102h82v289q211 236 457 235q236 0 397 -137l-92 -139q-131 113 -305 112q-162 0 -287 -135v-225h405l-30 -102h-375v-123h344l-31 -103h-313v-215q125 -135 287 -135q174 0 305 113l92 -140q-162 -137 -397 -137q-246 0 -457 236v278h-82z" />
<glyph unicode="&#xa5;" horiz-adv-x="1226" d="M109 1300h172q8 -221 90 -407t198 -277q117 90 199 276.5t90 407.5h172q-29 -516 -377 -813v-28h287v-103h-287v-102h287v-102h-287v-152h-168v152h-286v102h286v102h-286v103h286v28q-347 297 -376 813z" />
<glyph unicode="&#xa6;" horiz-adv-x="471" d="M164 328h143v-840h-143v840zM164 666v819h143v-819h-143z" />
<glyph unicode="&#xa7;" horiz-adv-x="864" d="M102 59l70 150q117 -84 223 -84q96 0 160 55v158q-47 37 -149 49q-131 29 -189 55q-57 31 -104 74v252q37 33 82 61q-43 23 -82 54v313q152 137 309 137q170 0 307 -92l-74 -145q-113 80 -229 80q-90 0 -150 -52v-159q47 -35 150 -50q186 -33 293 -118v-258 q-35 -35 -94 -60q61 -23 94 -49v-326q-63 -63 -149.5 -100t-163.5 -37q-165 0 -304 92zM274 588q66 -39 144 -39q82 0 139 55v115q-66 37 -143 37q-82 0 -140 -56v-112z" />
<glyph unicode="&#xa8;" horiz-adv-x="618" d="M72 1073v158q47 8 88 8q39 0 86 -8v-158q-49 -14 -88 -14q-37 0 -86 14zM373 1073v158q47 8 88 8q39 0 86 -8v-158q-49 -14 -88 -14q-37 0 -86 14z" />
<glyph unicode="&#xa9;" horiz-adv-x="1703" d="M102 674q0 289 207 500q209 209 502 208q291 0 500 -208.5t209 -499.5q0 -297 -209 -502q-205 -205 -500 -205t-502 207t-207 500zM246 674q0 -240 161.5 -408t403.5 -168q236 0 397 168q166 168 166 408q0 236 -166 403q-162 168 -397 168q-238 0 -401.5 -170 t-163.5 -401zM469 418v510q137 180 358 180q145 0 258 -88l-67 -119q-82 66 -195 66q-127 0 -209 -82v-424q80 -84 209 -84q113 0 195 65l67 -116q-115 -90 -258 -90q-219 0 -358 182z" />
<glyph unicode="&#xaa;" horiz-adv-x="724" d="M92 776v246q119 119 260 119q53 0 127 -25v80q-70 49 -139 49q-76 0 -154 -41l-45 121q90 49 203 49q86 0 143 -31q61 -25 125 -81v-531q-117 -59 -252 -59q-151 0 -268 104zM215 844q63 -45 145 -45q76 0 119 20v174q-49 25 -127 25q-82 0 -137 -57v-117z" />
<glyph unicode="&#xab;" horiz-adv-x="751" d="M51 477l170 281h139l-170 -281l170 -282h-139zM330 477l170 281h139l-168 -281l168 -282h-139z" />
<glyph unicode="&#xac;" horiz-adv-x="860" d="M102 594v143h656v-334h-133v191h-523z" />
<glyph unicode="&#xad;" horiz-adv-x="614" d="M61 430v137h492v-137h-492z" />
<glyph unicode="&#xae;" horiz-adv-x="1703" d="M102 674q0 287 207 500q209 209 502 208q291 0 500 -208.5t209 -499.5q0 -297 -209 -502q-205 -205 -500 -205t-502 207t-207 500zM246 674q0 -240 161.5 -408t403.5 -168q236 0 397 168q166 168 166 408q0 236 -166 403q-162 168 -397 168q-238 0 -401.5 -170 t-163.5 -401zM537 276v803h505q80 -139 80 -254q0 -133 -92 -245l100 -304h-133l-98 293h-217v-293h-145zM682 692h266q37 53 37 129t-24 129h-279v-258z" />
<glyph unicode="&#xaf;" horiz-adv-x="634" d="M72 1102v137h491v-137h-491z" />
<glyph unicode="&#x2c9;" horiz-adv-x="634" d="M72 1102v137h491v-137h-491z" />
<glyph unicode="&#xb0;" horiz-adv-x="653" d="M102 1153q0 94 65.5 159.5t160.5 65.5q88 0 152.5 -66.5t64.5 -158.5q0 -88 -66 -154q-63 -63 -151 -63q-92 0 -159 64.5t-67 152.5zM201 1153q0 -53 35.5 -89t91.5 -36q47 0 86 39t39 86q0 53 -38 90t-87 37q-55 0 -91 -37t-36 -90z" />
<glyph unicode="&#xb1;" horiz-adv-x="860" d="M102 2v143h656v-143h-656zM102 594v143h256v256h144v-256h256v-143h-256v-256h-144v256h-256z" />
<glyph unicode="&#xb2;" horiz-adv-x="673" d="M113 1221q102 90 211 90q145 0 237 -115v-258h-23q-222 0 -262 -152v-38h285v-123h-414v178q23 106 99 172.5t186 77.5v94q-41 39 -108 39q-72 0 -144 -72z" />
<glyph unicode="&#xb3;" horiz-adv-x="647" d="M92 680l64 104q63 -53 131 -53q82 2 119 43v98q-18 33 -44 50l-86 8v100l80 8q25 14 39 39v74q-43 43 -114 43q-72 -4 -121 -41l-54 113q80 49 170 53q150 0 248 -113v-174q-27 -33 -82 -49q66 -29 93 -61v-209q-94 -106 -248 -107q-115 4 -195 74z" />
<glyph unicode="&#xb4;" horiz-adv-x="483" d="M72 1128l252 197l88 -137l-283 -150z" />
<glyph unicode="&#xb5;" horiz-adv-x="1001" d="M143 -410v1332h164v-709q27 -37 83 -63.5t126 -26.5h7q90 0 171 53v746h164v-844q-178 -113 -342 -113q-117 0 -207 64l-2 2v-441h-164z" />
<glyph unicode="&#x3bc;" horiz-adv-x="1001" d="M143 -410v1332h164v-709q27 -37 83 -63.5t126 -26.5h7q90 0 171 53v746h164v-844q-178 -113 -342 -113q-117 0 -207 64l-2 2v-441h-164z" />
<glyph unicode="&#xb6;" horiz-adv-x="909" d="M123 739v262q102 197 377 197h286v-102h-88v-1303h-102v1303h-113v-1303h-112v778q-148 21 -248 168z" />
<glyph unicode="&#xb7;" horiz-adv-x="370" d="M82 584v188q54 12 106 12t101 -12v-188q-50 -13 -102 -13t-105 13z" />
<glyph unicode="&#x2219;" horiz-adv-x="370" d="M82 584v188q54 12 106 12t101 -12v-188q-50 -13 -102 -13t-105 13z" />
<glyph unicode="&#xb8;" horiz-adv-x="503" d="M133 -350l39 104q45 -33 74 -33q80 0 80 64q0 47 -37 62.5t-84 -9.5v185h98v-101q63 4 99 -37t36 -104q0 -80 -53 -124t-135 -44q-58 0 -117 37z" />
<glyph unicode="&#xb9;" horiz-adv-x="413" d="M51 1196q100 47 139 104l111 -61v-614h-129v493l-76 -31z" />
<glyph unicode="&#xba;" horiz-adv-x="694" d="M113 713v501q100 100 233 101q135 0 236 -101v-501q-100 -100 -236 -101q-133 1 -233 101zM242 772q43 -39 106 -39q61 0 105 39v383q-43 39 -105 39q-63 0 -106 -39v-383z" />
<glyph unicode="&#xbb;" horiz-adv-x="751" d="M113 195l168 282l-168 281h139l170 -281l-170 -282h-139zM391 195l170 282l-170 281h139l170 -281l-170 -282h-139z" />
<glyph unicode="&#xbc;" horiz-adv-x="1329" d="M113 1217q100 47 139 104l110 -61v-615h-129v494l-75 -31zM154 -41l809 1380h129l-809 -1380h-129zM743 244q27 168 93.5 262t191.5 180l121 -74v-344h68v-116h-68v-152h-129v152h-254zM885 268h135v262q-135 -123 -135 -262z" />
<glyph unicode="&#xbd;" horiz-adv-x="1413" d="M113 1217q100 47 139 104l110 -61v-615h-129v494l-75 -31zM154 -41l809 1380h129l-809 -1380h-129zM842 596q102 90 211 90q145 0 237 -115v-258q-12 0 -23 1q-222 0 -261 -152v-39h284v-123h-413v178q23 106 98.5 173t185.5 77v94q-41 39 -108 39q-72 0 -144 -72z" />
<glyph unicode="&#xbe;" horiz-adv-x="1505" d="M113 688l63 105q63 -53 131 -54q82 2 119 43v99q-18 33 -43 49l-86 8v100l80 9q25 14 39 38v74q-43 43 -115 43q-72 -4 -121 -41l-53 113q80 49 170 53q150 0 248 -113v-174q-27 -33 -82 -49q66 -29 92 -61v-209q-94 -106 -248 -107q-114 4 -194 74zM330 -41l809 1380 h129l-809 -1380h-129zM920 244q27 168 93 262t191 180l121 -74v-344h68v-116h-68v-152h-129v152h-254zM1061 268h135v262q-135 -123 -135 -262z" />
<glyph unicode="&#xbf;" horiz-adv-x="978" d="M123 197v352q74 45 139 98q150 129 148 344h163q0 -7 1 -13q0 -185 -56 -291q-57 -110 -231 -226v-203q113 -119 258 -119h8q150 0 260 144l115 -127q-145 -182 -381 -189q-258 11 -424 230zM393 1122v178q48 13 98 13.5t101 -13.5v-178h-199z" />
<glyph unicode="&#xc0;" horiz-adv-x="1228" d="M164 0v1214q147 59 246 82q82 18 204 23q123 -4 205 -23q98 -23 246 -82v-1214h-170v535h-561v-535h-170zM334 690h561v406q-123 45 -281 53q-158 -8 -280 -53v-406zM424 1567l88 137l252 -197l-57 -90z" />
<glyph unicode="&#xc1;" horiz-adv-x="1228" d="M164 0v1214q147 59 246 82q82 18 204 23q123 -4 205 -23q98 -23 246 -82v-1214h-170v535h-561v-535h-170zM334 690h561v406q-123 45 -281 53q-158 -8 -280 -53v-406zM465 1507l252 197l88 -137l-283 -150z" />
<glyph unicode="&#xc2;" horiz-adv-x="1228" d="M164 0v1214q147 59 246 82q82 18 204 23q123 -4 205 -23q98 -23 246 -82v-1214h-170v535h-561v-535h-170zM334 690h561v406q-123 45 -281 53q-158 -8 -280 -53v-406zM362 1413l179 205h147l178 -205h-159l-93 103l-92 -103h-160z" />
<glyph unicode="&#xc3;" horiz-adv-x="1228" d="M164 0v1214q147 59 246 82q82 18 204 23q123 -4 205 -23q98 -23 246 -82v-1214h-170v535h-561v-535h-170zM334 690h561v406q-123 45 -281 53q-158 -8 -280 -53v-406zM379 1438q10 82 52 123t101 41q25 0 48 -9q16 -6 38.5 -19t38 -20.5t27.5 -7.5q51 0 59 51h107 q-8 -80 -52 -120.5t-112 -40.5q-37 0 -59 14q-68 41 -82 41q-49 0 -60 -53h-106z" />
<glyph unicode="&#xc4;" horiz-adv-x="1228" d="M164 0v1214q147 59 246 82q82 18 204 23q123 -4 205 -23q98 -23 246 -82v-1214h-170v535h-561v-535h-170zM334 690h561v406q-123 45 -281 53q-158 -8 -280 -53v-406zM377 1452v158q47 8 88 8q39 0 86 -8v-158q-49 -14 -88 -14q-37 0 -86 14zM678 1452v158q47 8 88 8 q39 0 86 -8v-158q-49 -14 -88 -14q-37 0 -86 14z" />
<glyph unicode="&#xc5;" horiz-adv-x="1228" d="M164 0v1214q147 59 246 82q33 8 106 17q-84 51 -84 147q0 78 53.5 129t129 51t128 -51t52.5 -129q0 -96 -84 -147q70 -8 108 -17q98 -23 246 -82v-1214h-170v535h-561v-535h-170zM334 690h561v406q-123 45 -281 53q-158 -8 -280 -53v-406zM528 1460q0 -37 25 -58.5 t61.5 -21.5t60 21.5t23.5 58.5q0 41 -23.5 64.5t-60 23.5t-61.5 -23.5t-25 -64.5z" />
<glyph unicode="&#xc6;" horiz-adv-x="1746" d="M164 0v1214q147 59 246 82q82 18 204 23q166 -2 281 -47v28h709v-155h-539v-438h471v-156h-471v-395h559v-156h-729v551h-561v-551h-170zM334 707h561v389q-123 45 -281 53q-158 -8 -280 -53v-389z" />
<glyph unicode="&#xc7;" horiz-adv-x="1110" d="M164 203v895q211 236 457 235q236 0 397 -137l-92 -139q-131 113 -305 112q-162 0 -287 -135v-768q125 -135 287 -135q174 0 305 113l92 -140q-152 -127 -369 -137v-45q6 0 12 1q55 0 88 -38q36 -41 35 -104q0 -80 -53 -124t-135 -44q-59 0 -117 37l39 104q45 -33 74 -33 q80 0 80 64q0 47 -37 62q-14 6 -30 6q-25 0 -54 -15v135q-207 29 -387 230z" />
<glyph unicode="&#xc8;" horiz-adv-x="1015" d="M164 0v1300h708v-155h-538v-395h471v-156h-471v-438h559v-156h-729zM338 1567l88 137l252 -197l-57 -90z" />
<glyph unicode="&#xc9;" horiz-adv-x="1015" d="M164 0v1300h708v-155h-538v-395h471v-156h-471v-438h559v-156h-729zM338 1507l252 197l88 -137l-283 -150z" />
<glyph unicode="&#xca;" horiz-adv-x="1015" d="M164 0v1300h708v-155h-538v-395h471v-156h-471v-438h559v-156h-729zM276 1413l179 205h147l178 -205h-159l-93 103l-92 -103h-160z" />
<glyph unicode="&#xcb;" horiz-adv-x="1015" d="M164 0v1300h708v-155h-538v-395h471v-156h-471v-438h559v-156h-729zM283 1452v158q47 8 88 8q39 0 86 -8v-158q-49 -14 -88 -14q-37 0 -86 14zM584 1452v158q47 8 88 8q39 0 86 -8v-158q-49 -14 -88 -14q-37 0 -86 14z" />
<glyph unicode="&#xcc;" horiz-adv-x="497" d="M78 1567l88 137l252 -197l-58 -90zM164 0v1300h170v-1300h-170z" />
<glyph unicode="&#xcd;" horiz-adv-x="497" d="M78 1507l252 197l88 -137l-283 -150zM164 0v1300h170v-1300h-170z" />
<glyph unicode="&#xce;" horiz-adv-x="497" d="M-2 1413l178 205h148l178 -205h-160l-92 103l-92 -103h-160zM164 0v1300h170v-1300h-170z" />
<glyph unicode="&#xcf;" horiz-adv-x="497" d="M12 1452v158q47 8 88 8q39 0 86 -8v-158q-49 -14 -88 -14q-37 0 -86 14zM164 0v1300h170v-1300h-170zM313 1452v158q47 8 88 8q39 0 86 -8v-158q-49 -14 -88 -14q-37 0 -86 14z" />
<glyph unicode="&#xd0;" horiz-adv-x="1173" d="M68 575v138h96v587h760q47 -113 80 -272q37 -184 36 -379q0 -193 -36 -377q-33 -160 -80 -272h-760v575h-96zM334 156h463q74 221 73 493q0 274 -73 496h-463v-432h225v-138h-225v-419z" />
<glyph unicode="&#xd1;" horiz-adv-x="1206" d="M164 0v1247l162 84l546 -727v696h170v-1300h-170v348l-538 715v-1063h-170zM367 1438q10 82 52 123t101 41q25 0 47 -9q16 -6 39 -19t38 -20.5t28 -7.5q51 0 59 51h107q-8 -80 -52.5 -120.5t-111.5 -40.5q-37 0 -60 14q-68 41 -82 41q-49 0 -59 -53h-106z" />
<glyph unicode="&#xd2;" horiz-adv-x="1249" d="M164 158v985q221 190 460.5 190t460.5 -190v-985q-221 -190 -460.5 -190t-460.5 190zM334 242q125 -111 291 -111t290 111v819q-127 109 -290.5 108.5t-290.5 -108.5v-819zM434 1567l88 137l252 -197l-57 -90z" />
<glyph unicode="&#xd3;" horiz-adv-x="1249" d="M164 158v985q221 190 460.5 190t460.5 -190v-985q-221 -190 -460.5 -190t-460.5 190zM334 242q125 -111 291 -111t290 111v819q-127 109 -290.5 108.5t-290.5 -108.5v-819zM475 1507l252 197l88 -137l-283 -150z" />
<glyph unicode="&#xd4;" horiz-adv-x="1249" d="M164 158v985q221 190 460.5 190t460.5 -190v-985q-221 -190 -460.5 -190t-460.5 190zM334 242q125 -111 291 -111t290 111v819q-127 109 -290.5 108.5t-290.5 -108.5v-819zM373 1413l178 205h147l179 -205h-160l-92 103l-93 -103h-159z" />
<glyph unicode="&#xd5;" horiz-adv-x="1249" d="M164 158v985q221 190 460.5 190t460.5 -190v-985q-221 -190 -460.5 -190t-460.5 190zM334 242q125 -111 291 -111t290 111v819q-127 109 -290.5 108.5t-290.5 -108.5v-819zM389 1438q10 82 52 123t102 41q25 0 47 -9q16 -6 38.5 -19t38 -20.5t27.5 -7.5q51 0 60 51h106 q-8 -80 -52 -120.5t-112 -40.5q-37 0 -59 14q-68 41 -82 41q-49 0 -59 -53h-107z" />
<glyph unicode="&#xd6;" horiz-adv-x="1249" d="M164 158v985q221 190 460.5 190t460.5 -190v-985q-221 -190 -460.5 -190t-460.5 190zM334 242q125 -111 291 -111t290 111v819q-127 109 -290.5 108.5t-290.5 -108.5v-819zM387 1452v158q47 8 88 8q39 0 86 -8v-158q-49 -14 -88 -14q-37 0 -86 14zM688 1452v158 q47 8 88 8q39 0 86 -8v-158q-49 -14 -88 -14q-37 0 -86 14z" />
<glyph unicode="&#xd7;" horiz-adv-x="882" d="M123 881l108 108l211 -219l203 211l109 -109l-213 -202l219 -211l-109 -109l-209 219l-202 -211l-109 109l211 203z" />
<glyph unicode="&#xd8;" horiz-adv-x="1249" d="M164 158v985q221 190 461 190q129 0 254 -55l55 104h133l-84 -163q49 -31 102 -76v-985q-221 -190 -460 -191q-129 0 -256 56l-54 -105h-133l84 162q-53 35 -102 78zM334 240l8 -9l461 899q-82 37 -178 37q-166 0 -291 -104v-823zM444 170q84 -37 181 -37q166 0 290 107 v823q-2 2 -10 6z" />
<glyph unicode="&#xd9;" horiz-adv-x="1241" d="M164 158v1142h170v-1062q143 -106 292.5 -106.5t280.5 106.5v1062h170v-1142q-217 -190 -450.5 -190t-462.5 190zM410 1567l88 137l252 -197l-58 -90z" />
<glyph unicode="&#xda;" horiz-adv-x="1241" d="M164 158v1142h170v-1062q143 -106 292.5 -106.5t280.5 106.5v1062h170v-1142q-217 -190 -450.5 -190t-462.5 190zM471 1507l252 197l88 -137l-283 -150z" />
<glyph unicode="&#xdb;" horiz-adv-x="1241" d="M164 158v1142h170v-1062q143 -106 292.5 -106.5t280.5 106.5v1062h170v-1142q-217 -190 -450.5 -190t-462.5 190zM369 1413l178 205h147l178 -205h-159l-92 103l-93 -103h-159z" />
<glyph unicode="&#xdc;" horiz-adv-x="1241" d="M164 158v1142h170v-1062q143 -106 292.5 -106.5t280.5 106.5v1062h170v-1142q-217 -190 -450.5 -190t-462.5 190zM383 1452v158q47 8 88 8q39 0 86 -8v-158q-49 -14 -88 -14q-37 0 -86 14zM684 1452v158q47 8 88 8q39 0 86 -8v-158q-49 -14 -88 -14q-37 0 -86 14z" />
<glyph unicode="&#xdd;" horiz-adv-x="1040" d="M61 1300h170q8 -221 90 -407t199 -277q117 90 199 276.5t90 407.5h170q-25 -514 -375 -813v-487h-168v487q-350 299 -375 813zM350 1507l252 197l88 -137l-282 -150z" />
<glyph unicode="&#xde;" horiz-adv-x="1126" d="M164 0v1300h170v-174h518q115 -209 115 -403q0 -197 -115 -404h-518v-319h-170zM334 494h416q47 90 47 229q0 129 -47 229h-416v-458z" />
<glyph unicode="&#xdf;" horiz-adv-x="1054" d="M164 0v1192q152 129 342 129q170 0 319 -129v-389q-127 -121 -299 -121v-53q106 0 212 -37t173 -98v-396q-145 -117 -305 -116q-111 0 -211 43v159q104 -47 211 -47q82 0 142 49v215q-113 86 -345 86v336h134q72 0 125 47v246q-63 49 -156 49q-100 0 -178 -49v-1116h-164 z" />
<glyph unicode="&#xe0;" horiz-adv-x="919" d="M113 113v331q143 158 331 158q92 0 168 -35v164q-84 76 -189 76q-89 0 -194 -53l-55 137q123 66 243 65h7q225 -2 352 -155v-750q-90 -43 -160 -63q-61 -20 -157 -21q-176 1 -346 146zM248 1188l88 137l252 -197l-58 -90zM276 176q78 -63 183 -63q102 0 153 37v270 q-64 31 -148 31h-20q-104 0 -168 -64v-211z" />
<glyph unicode="&#xe1;" horiz-adv-x="919" d="M113 113v331q143 158 331 158q92 0 168 -35v164q-84 76 -189 76q-89 0 -194 -53l-55 137q123 66 243 65h7q225 -2 352 -155v-750q-90 -43 -160 -63q-61 -20 -157 -21q-176 1 -346 146zM276 176q78 -63 183 -63q102 0 153 37v270q-64 31 -148 31h-20q-104 0 -168 -64v-211 zM307 1128l252 197l88 -137l-282 -150z" />
<glyph unicode="&#xe2;" horiz-adv-x="919" d="M113 113v331q143 158 331 158q92 0 168 -35v164q-84 76 -189 76q-89 0 -194 -53l-55 137q123 66 243 65h7q225 -2 352 -155v-750q-90 -43 -160 -63q-61 -20 -157 -21q-176 1 -346 146zM207 1034l178 205h147l179 -205h-160l-92 103l-92 -103h-160zM276 176 q78 -63 183 -63q102 0 153 37v270q-64 31 -148 31h-20q-104 0 -168 -64v-211z" />
<glyph unicode="&#xe3;" horiz-adv-x="919" d="M113 113v331q143 158 331 158q92 0 168 -35v164q-84 76 -189 76q-89 0 -194 -53l-55 137q123 66 243 65h7q225 -2 352 -155v-750q-90 -43 -160 -63q-61 -20 -157 -21q-176 1 -346 146zM207 1059q10 82 52 123t101 41q25 0 48 -9q16 -6 38.5 -19t38 -20.5t27.5 -7.5 q51 0 59 52h107q-8 -80 -52 -121t-112 -41q-37 0 -59 14q-68 41 -82 41q-49 0 -60 -53h-106zM276 176q78 -63 183 -63q102 0 153 37v270q-64 31 -148 31h-20q-104 0 -168 -64v-211z" />
<glyph unicode="&#xe4;" horiz-adv-x="919" d="M113 113v331q143 158 331 158q92 0 168 -35v164q-84 76 -189 76q-89 0 -194 -53l-55 137q123 66 243 65h7q225 -2 352 -155v-750q-90 -43 -160 -63q-61 -20 -157 -21q-176 1 -346 146zM215 1073v158q47 8 88 8q39 0 86 -8v-158q-49 -14 -88 -14q-37 0 -86 14zM276 176 q78 -63 183 -63q102 0 153 37v270q-64 31 -148 31h-20q-104 0 -168 -64v-211zM516 1073v158q47 8 88 8q39 0 86 -8v-158q-49 -14 -88 -14q-37 0 -86 14z" />
<glyph unicode="&#xe5;" horiz-adv-x="919" d="M113 113v331q143 158 331 158q92 0 168 -35v164q-84 76 -189 76q-89 0 -194 -53l-55 137q123 66 243 65h7q225 -2 352 -155v-750q-90 -43 -160 -63q-61 -20 -157 -21q-176 1 -346 146zM258 1212q0 78 53.5 129.5t129 51.5t128 -51.5t52.5 -129.5q0 -74 -52.5 -123 t-128 -49t-129 49t-53.5 123zM276 176q78 -63 183 -63q102 0 153 37v270q-64 31 -148 31h-20q-104 0 -168 -64v-211zM354 1212q0 -37 24.5 -58t61.5 -21t60.5 21.5t23.5 57.5q0 41 -23.5 64.5t-60.5 23.5t-61.5 -23.5t-24.5 -64.5z" />
<glyph unicode="&#xe6;" horiz-adv-x="1462" d="M113 113v325q94 92 164.5 128t166.5 36q92 0 168 -35v164q-84 76 -189 76q-89 0 -194 -53l-65 137q133 63 263 65q6 0 11 1q122 0 185 -44q43 -29 73 -53q117 92 279 96q207 0 354 -153v-328q-100 -96 -244 -122q-49 -9 -100 -8q-99 0 -209 32v-170q80 -76 215 -86 q141 0 242 94l92 -123q-152 -125 -334 -125q-109 0 -200 45l-52 29q-63 -35 -123 -53q-61 -20 -157 -21q-176 1 -346 146zM276 176q78 -63 183 -63q102 0 153 36v271q-64 31 -148 31h-20q-104 0 -168 -70v-205zM776 516q82 -29 185 -29q131 0 204 54v186q-66 70 -190 72 q-115 0 -199 -66v-217z" />
<glyph unicode="&#xe7;" horiz-adv-x="901" d="M143 156v608q172 193 379 192q178 0 297 -98l-90 -137q-90 74 -207 74q-133 0 -215 -93v-485q82 -88 215 -88q117 0 207 74l90 -137q-117 -94 -293 -99v-45q6 0 12 1q55 0 88 -38q36 -41 36 -104q0 -80 -53.5 -124t-135.5 -44q-59 0 -117 37l39 104q45 -33 74 -33 q80 0 80 64q0 47 -37 62q-14 6 -30 6q-25 0 -54 -15v139q-154 29 -285 179z" />
<glyph unicode="&#xe8;" horiz-adv-x="993" d="M143 139v654q145 160 363 163q209 0 354 -153v-328q-100 -96 -244 -122q-49 -9 -100 -8q-99 0 -209 32v-170q80 -76 215 -86q141 0 242 94l92 -123q-152 -125 -334 -125q-203 0 -379 172zM307 516q82 -29 185 -29q131 0 204 54v186q-66 70 -190 72q-115 0 -199 -66v-217z M326 1188l88 137l252 -197l-58 -90z" />
<glyph unicode="&#xe9;" horiz-adv-x="993" d="M143 139v654q145 160 363 163q209 0 354 -153v-328q-100 -96 -244 -122q-49 -9 -100 -8q-99 0 -209 32v-170q80 -76 215 -86q141 0 242 94l92 -123q-152 -125 -334 -125q-203 0 -379 172zM307 516q82 -29 185 -29q131 0 204 54v186q-66 70 -190 72q-115 0 -199 -66v-217z M346 1128l252 197l88 -137l-283 -150z" />
<glyph unicode="&#xea;" horiz-adv-x="993" d="M143 139v654q145 160 363 163q209 0 354 -153v-328q-100 -96 -244 -122q-49 -9 -100 -8q-99 0 -209 32v-170q80 -76 215 -86q141 0 242 94l92 -123q-152 -125 -334 -125q-203 0 -379 172zM248 1034l178 205h147l179 -205h-160l-92 103l-92 -103h-160zM307 516 q82 -29 185 -29q131 0 204 54v186q-66 70 -190 72q-115 0 -199 -66v-217z" />
<glyph unicode="&#xeb;" horiz-adv-x="993" d="M143 139v654q145 160 363 163q209 0 354 -153v-328q-100 -96 -244 -122q-49 -9 -100 -8q-99 0 -209 32v-170q80 -76 215 -86q141 0 242 94l92 -123q-152 -125 -334 -125q-203 0 -379 172zM258 1073v158q47 8 88 8q39 0 86 -8v-158q-49 -14 -88 -14q-37 0 -86 14zM307 516 q82 -29 185 -29q131 0 204 54v186q-66 70 -190 72q-115 0 -199 -66v-217zM559 1073v158q47 8 88 8q39 0 86 -8v-158q-49 -14 -88 -14q-37 0 -86 14z" />
<glyph unicode="&#xec;" horiz-adv-x="430" d="M25 1188l88 137l252 -197l-58 -90zM123 0v922h164v-922h-164z" />
<glyph unicode="&#xed;" horiz-adv-x="430" d="M45 1128l252 197l88 -137l-283 -150zM123 0v922h164v-922h-164z" />
<glyph unicode="&#xee;" horiz-adv-x="430" d="M-47 1034l178 205h148l178 -205h-160l-92 103l-92 -103h-160zM123 0v922h164v-922h-164z" />
<glyph unicode="&#xef;" horiz-adv-x="430" d="M-23 1073v158q47 8 89 8q39 0 86 -8v-158q-49 -14 -89 -14q-37 0 -86 14zM123 0v922h164v-922h-164zM279 1073v158q47 8 88 8q39 0 86 -8v-158q-49 -14 -88 -14q-37 0 -86 14z" />
<glyph unicode="&#xf0;" d="M143 158v598q172 190 369 190q94 0 182 -41l23 -22v24q-35 111 -127 195l-68 -92l-71 53l75 111q-47 41 -114 71l53 115q80 -37 135 -78l74 100l69 -51l-73 -102q76 -63 139 -170q63 -109 72 -189v-753q-180 -150 -369 -150q-203 1 -369 191zM307 215q92 -94 205 -94 q117 0 205 69v539q-78 66 -205 66q-123 0 -205 -88v-492z" />
<glyph unicode="&#xf1;" d="M143 0v815q176 141 369 141q205 0 369 -213v-743h-164v680q-92 111 -205 111h-7q-109 0 -198 -64v-727h-164zM276 1059q10 82 52.5 123t101.5 41q25 0 47 -9q16 -6 39 -19t38 -20.5t28 -7.5q51 0 59 52h107q-8 -80 -52.5 -121t-111.5 -41q-37 0 -60 14q-68 41 -82 41 q-49 0 -59 -53h-107z" />
<glyph unicode="&#xf2;" d="M143 129v666q164 162 369 161.5t369 -161.5v-666q-164 -162 -369 -162t-369 162zM307 197q84 -72 205 -72t205 72v526q-84 72 -205 72t-205 -72v-526zM322 1188l88 137l252 -197l-58 -90z" />
<glyph unicode="&#xf3;" d="M143 129v666q164 162 369 161.5t369 -161.5v-666q-164 -162 -369 -162t-369 162zM307 197q84 -72 205 -72t205 72v526q-84 72 -205 72t-205 -72v-526zM362 1128l252 197l88 -137l-282 -150z" />
<glyph unicode="&#xf4;" d="M143 129v666q164 162 369 161.5t369 -161.5v-666q-164 -162 -369 -162t-369 162zM260 1034l178 205h148l178 -205h-160l-92 103l-92 -103h-160zM307 197q84 -72 205 -72t205 72v526q-84 72 -205 72t-205 -72v-526z" />
<glyph unicode="&#xf5;" d="M143 129v666q164 162 369 161.5t369 -161.5v-666q-164 -162 -369 -162t-369 162zM276 1059q10 82 52.5 123t101.5 41q25 0 47 -9q16 -6 39 -19t38 -20.5t28 -7.5q51 0 59 52h107q-8 -80 -52.5 -121t-111.5 -41q-37 0 -60 14q-68 41 -82 41q-49 0 -59 -53h-107zM307 197 q84 -72 205 -72t205 72v526q-84 72 -205 72t-205 -72v-526z" />
<glyph unicode="&#xf6;" d="M143 129v666q164 162 369 161.5t369 -161.5v-666q-164 -162 -369 -162t-369 162zM274 1073v158q47 8 88 8q39 0 87 -8v-158q-49 -14 -89 -14q-37 0 -86 14zM307 197q84 -72 205 -72t205 72v526q-84 72 -205 72t-205 -72v-526zM575 1073v158q47 8 89 8q39 0 86 -8v-158 q-49 -14 -88 -14q-38 0 -87 14z" />
<glyph unicode="&#xf7;" horiz-adv-x="901" d="M102 594h697v143h-697v-143zM348 934v188q54 12 106 12.5t101 -12.5v-188q-50 -13 -102 -13t-105 13zM348 227v189q54 12 106 12t101 -12v-189q-50 -13 -102 -13t-105 13z" />
<glyph unicode="&#xf8;" d="M143 129v666q164 162 369 161q100 0 180 -32l39 73h117l-64 -123q51 -37 97 -79v-666q-164 -162 -369 -162q-100 0 -180 33l-37 -74h-115l62 121q-54 37 -99 82zM307 197l8 -9l303 590q-53 16 -106 17q-121 0 -205 -72v-526zM406 139q45 -14 106 -14q121 0 205 72v526 q0 2 -4 4l-4 2z" />
<glyph unicode="&#xf9;" horiz-adv-x="1001" d="M143 182v740h164v-691q76 -109 209 -108h7q90 0 171 53v746h164v-844q-178 -113 -342 -113q-223 0 -373 217zM330 1188l88 137l252 -197l-58 -90z" />
<glyph unicode="&#xfa;" horiz-adv-x="1001" d="M143 182v740h164v-691q76 -109 209 -108h7q90 0 171 53v746h164v-844q-178 -113 -342 -113q-223 0 -373 217zM350 1128l252 197l88 -137l-282 -150z" />
<glyph unicode="&#xfb;" horiz-adv-x="1001" d="M143 182v740h164v-691q76 -109 209 -108h7q90 0 171 53v746h164v-844q-178 -113 -342 -113q-223 0 -373 217zM248 1034l178 205h147l179 -205h-160l-92 103l-92 -103h-160z" />
<glyph unicode="&#xfc;" horiz-adv-x="1001" d="M143 182v740h164v-691q76 -109 209 -108h7q90 0 171 53v746h164v-844q-178 -113 -342 -113q-223 0 -373 217zM262 1073v158q47 8 88 8q39 0 86 -8v-158q-49 -14 -88 -14q-37 0 -86 14zM563 1073v158q47 8 88 8q39 0 86 -8v-158q-49 -14 -88 -14q-37 0 -86 14z" />
<glyph unicode="&#xfd;" horiz-adv-x="962" d="M61 922h168q8 -201 76 -398q51 -152 176 -329q125 178 176 329q68 197 76 398h168q-12 -311 -137 -562q-100 -203 -201 -303v-467h-164v465q-100 100 -202 305q-124 253 -136 562zM311 1128l252 197l88 -137l-282 -150z" />
<glyph unicode="&#xfe;" d="M143 -410v1751l166 41v-479q90 53 203 53t198 -38.5t171 -131.5v-649q-86 -90 -167 -130t-182 -40q-111 0 -200 47l-23 25v-449h-166zM309 199q86 -74 223 -74q104 2 185 80v520q-82 72 -205 72q-127 0 -203 -62v-536z" />
<glyph unicode="&#xff;" horiz-adv-x="962" d="M61 922h168q8 -201 76 -398q51 -152 176 -329q125 178 176 329q68 197 76 398h168q-12 -311 -137 -562q-100 -203 -201 -303v-467h-164v465q-100 100 -202 305q-124 253 -136 562zM244 1073v158q47 8 88 8q39 0 86 -8v-158q-49 -14 -88 -14q-37 0 -86 14zM545 1073v158 q47 8 88 8q39 0 86 -8v-158q-49 -14 -88 -14q-37 0 -86 14z" />
<glyph unicode="&#x152;" horiz-adv-x="1767" d="M164 158v985q221 190 461 190q145 0 290 -73v40h709v-155h-539v-391h471v-160h-471v-438h560v-156h-730v41q-145 -74 -290 -74q-240 1 -461 191zM334 1063v-823q127 -109 290.5 -109t290.5 109v823q-125 106 -290.5 106t-290.5 -106z" />
<glyph unicode="&#x153;" horiz-adv-x="1566" d="M143 129v666q164 162 369 161q106 0 195 -41q41 -18 90 -55q121 92 282 96q106 0 189.5 -34.5t165.5 -118.5v-328q-100 -96 -244 -122q-49 -9 -101 -8q-99 0 -208 32v-170q80 -76 215 -86q141 0 241 94l93 -123q-152 -125 -334 -125q-104 0 -201 43q-33 14 -90 58 q-49 -39 -98 -62q-84 -39 -195 -39q-205 0 -369 162zM307 197q84 -72 205 -72t205 72v526q-84 72 -205 72t-205 -72v-526zM881 516q82 -29 184 -29q131 0 205 54v186q-66 70 -191 72q-115 0 -198 -66v-217z" />
<glyph unicode="&#x178;" horiz-adv-x="1040" d="M61 1300h170q8 -221 90 -407t199 -277q117 90 199 276.5t90 407.5h170q-25 -514 -375 -813v-487h-168v487q-350 299 -375 813zM283 1452v158q47 8 88 8q39 0 86 -8v-158q-49 -14 -88 -14q-37 0 -86 14zM584 1452v158q47 8 88 8q39 0 86 -8v-158q-49 -14 -88 -14 q-37 0 -86 14z" />
<glyph unicode="&#x2c6;" horiz-adv-x="647" d="M72 1034l178 205h147l178 -205h-159l-92 103l-93 -103h-159z" />
<glyph unicode="&#x2dc;" horiz-adv-x="614" d="M72 1059q10 82 52 123t101 41q25 0 47 -9q16 -6 39 -19t38.5 -20.5t27.5 -7.5q51 0 59 52h107q-8 -80 -52.5 -121t-111.5 -41q-37 0 -60 14q-68 41 -81 41q-49 0 -60 -53h-106z" />
<glyph unicode="&#x2013;" horiz-adv-x="737" d="M0 430v137h737v-137h-737z" />
<glyph unicode="&#x2014;" horiz-adv-x="1269" d="M0 430v137h1270v-137h-1270z" />
<glyph unicode="&#x2018;" horiz-adv-x="393" d="M92 987v207q8 135 154 188l35 -77q-49 -16 -66 -54q-9 -21 -9 -41q0 -15 5 -30h90v-193q-63 -12 -106 -12q-42 0 -103 12z" />
<glyph unicode="&#x2019;" horiz-adv-x="393" d="M92 1176v192q63 12 105 12q43 0 104 -12v-207q-8 -135 -154 -188l-34 78q49 16 65 53q9 21 10 41q0 15 -6 31h-90z" />
<glyph unicode="&#x201a;" horiz-adv-x="372" d="M72 184v193q63 12 104 12q43 0 105 -12v-207q-8 -135 -154 -188l-35 77q49 16 66 54q9 21 9 41q0 15 -5 30h-90z" />
<glyph unicode="&#x201c;" horiz-adv-x="720" d="M92 987v207q8 135 154 188l35 -77q-49 -16 -66 -54q-9 -21 -9 -41q0 -15 5 -30h90v-193q-63 -12 -106 -12q-42 0 -103 12zM420 987v207q8 135 153 188l35 -77q-49 -16 -65 -54q-9 -21 -10 -41q0 -15 6 -30h90v-193q-63 -12 -107 -12q-41 0 -102 12z" />
<glyph unicode="&#x201d;" horiz-adv-x="720" d="M92 1176v192q63 12 105 12q43 0 104 -12v-207q-8 -135 -154 -188l-34 78q49 16 65 53q9 21 10 41q0 15 -6 31h-90zM420 1176v192q63 12 104 12q43 0 105 -12v-207q-8 -135 -154 -188l-35 78q49 16 66 53q9 21 9 41q0 15 -5 31h-90z" />
<glyph unicode="&#x201e;" horiz-adv-x="720" d="M92 184v193q63 12 105 12q43 0 104 -12v-207q-8 -135 -154 -188l-34 77q49 16 65 54q9 21 10 41q0 15 -6 30h-90zM420 184v193q63 12 104 12q43 0 105 -12v-207q-8 -135 -154 -188l-35 77q49 16 66 54q9 21 9 41q0 15 -5 30h-90z" />
<glyph unicode="&#x2022;" horiz-adv-x="567" d="M123 549v291q75 14 150 14t151 -14v-291q-77 -17 -152 -17t-149 17z" />
<glyph unicode="&#x2026;" horiz-adv-x="1112" d="M82 0v188q54 12 106 12.5t101 -12.5v-188q-50 -13 -102 -13t-105 13zM453 0v188q54 12 105.5 12.5t100.5 -12.5v-188q-50 -13 -101.5 -13t-104.5 13zM823 0v188q54 12 106 12.5t101 -12.5v-188q-50 -13 -102 -13t-105 13z" />
<glyph unicode="&#x2039;" horiz-adv-x="473" d="M51 477l170 281h139l-170 -281l170 -282h-139z" />
<glyph unicode="&#x203a;" horiz-adv-x="473" d="M113 195l170 280l-170 283h139l170 -283l-170 -280h-139z" />
<glyph unicode="&#x20ac;" horiz-adv-x="1161" d="M82 481v103h82v123h-82v102h82v289q211 236 457 235q236 0 397 -137l-92 -139q-131 113 -305 112q-162 0 -287 -135v-225h405l-30 -102h-375v-123h344l-31 -103h-313v-215q125 -135 287 -135q174 0 305 113l92 -140q-162 -137 -397 -137q-246 0 -457 236v278h-82z" />
<glyph unicode="&#x2122;" horiz-adv-x="1409" d="M92 1257v115h420v-115h-150v-565h-122v565h-148zM621 692v649l137 52l200 -330l205 330l133 -52v-649h-120v506l-183 -287h-71l-179 287v-506h-122z" />
<glyph unicode="&#xe000;" horiz-adv-x="920" d="M0 920h920v-920h-920v920z" />
<glyph unicode="&#xfb01;" horiz-adv-x="888" d="M72 784v138h82v213q0 82 90 157.5t231 89.5v-165h-15q-54 0 -91 -26q-43 -30 -52 -71v-198h422v-922h-164v784h-258v-784h-163v784h-82zM573 1108v192q53 12 84 12.5t84 -12.5v-192h-168z" />
<glyph unicode="&#xfb02;" horiz-adv-x="917" d="M72 784v138h82v213q0 82 91 156.5t240 90.5h254v-1161q0 -37 36 -62q26 -18 54 -19q11 0 23 3v-170h-7q-102 0 -173 56q-76 59 -97 129v626h-258v-784h-163v784h-82zM317 1120v-198h258v295h-90h-15q-54 0 -96 -26q-49 -30 -57 -71z" />
<glyph unicode="&#xfb03;" horiz-adv-x="1507" d="M72 784v138h82v213q0 82 91 156.5t240 90.5v-165h-15q-54 0 -96 -26q-48 -30 -57 -71v-198h168v-138h-168v-784h-163v784h-82zM598 784v138h82v213q0 82 91 156.5t241 90.5v-165h-15q-54 0 -97 -26q-48 -30 -56 -71v-198h168v-138h-168v-784h-164v784h-82zM1196 1108v192 q43 10 85 10.5t83 -10.5v-192h-168zM1198 0v922h164v-922h-164z" />
<glyph unicode="&#xfb04;" horiz-adv-x="1513" d="M72 784v138h82v213q0 82 91 156.5t240 90.5v-165h-15q-54 0 -96 -26q-48 -30 -57 -71v-198h168v-138h-168v-784h-163v784h-82zM598 784v138h82v213q0 82 91 156.5t241 90.5v-165h-15q-54 0 -97 -26q-48 -30 -56 -71v-198h168v-138h-168v-784h-164v784h-82zM1196 158v1194 l164 30v-1161q0 -37 36 -62q26 -18 54 -19q11 0 23 3v-170h-8q-102 0 -173 56q-76 59 -96 129z" />
</font>
</defs>
</svg>
